<?xml version="1.0" standalone="no"?>
<!DOCTYPE svg PUBLIC "-//W3C//DTD SVG 20010904//EN"
 "http://www.w3.org/TR/2001/REC-SVG-20010904/DTD/svg10.dtd">
<svg version="1.0" xmlns="http://www.w3.org/2000/svg"
 width="159.000000pt" height="178.000000pt" viewBox="0 0 159.000000 178.000000"
 preserveAspectRatio="xMidYMid meet">

<g transform="translate(0.000000,178.000000) scale(0.100000,-0.100000)"
fill="#000000" stroke="none">
<path d="M325 1694 c-14 -14 -15 -65 -15 -456 l1 -441 -145 -147 c-80 -80
-146 -150 -146 -155 0 -5 100 -109 222 -232 161 -161 229 -223 245 -223 17 0
73 49 194 171 l171 171 90 -91 c49 -50 99 -93 110 -97 18 -5 55 28 220 193
109 109 198 205 198 212 0 8 -43 57 -95 110 l-95 97 0 440 c0 329 -3 443 -12
452 -9 9 -127 12 -469 12 -406 0 -459 -2 -474 -16z m795 -82 c0 -4 -72 -79
-160 -167 l-160 -160 -168 168 -167 167 328 0 c180 0 327 -3 327 -8z m-550
-222 c88 -88 160 -164 160 -168 0 -9 -313 -322 -322 -322 -5 0 -8 146 -8 325
0 179 2 325 5 325 3 0 77 -72 165 -160z m630 -166 c0 -205 -4 -324 -10 -322
-5 2 -81 74 -169 162 l-160 158 162 164 c89 89 165 163 170 163 4 1 7 -146 7
-325z m-219 -246 l171 -171 -333 -333 -333 -333 -173 173 c-95 96 -173 177
-173 180 0 12 648 656 660 656 6 0 87 -77 181 -172z m379 -377 c0 -3 -68 -74
-150 -156 l-151 -150 -70 74 -70 73 23 26 c13 14 79 81 147 149 l123 123 74
-66 c41 -37 74 -69 74 -73z"/>
</g>
</svg>
